<?xml version="1.0" encoding="utf-8"?>
<!-- Generator: Adobe Illustrator 27.5.0, SVG Export Plug-In . SVG Version: 6.00 Build 0)  -->
<svg version="1.1" xmlns="http://www.w3.org/2000/svg" xmlns:xlink="http://www.w3.org/1999/xlink" x="0px" y="0px"
	 viewBox="0 0 1122 1122" style="enable-background:new 0 0 1122 1122;" xml:space="preserve">
<g id="BG">
	<rect style="fill:#FFFFFF;" width="1122" height="1122"/>
</g>
<g id="Object">
	<g>
		<path d="M456.769,521.383c-2.223-0.146-3.669,2.721-4.532,4.354c-1.196,2.257-1.459,4.741-2.453,7.058
			c-1.059,2.471-2.934,4.59-4.27,6.922c-2.555,4.454-5.28,9.738-9.854,12.347c-3.28,1.87-6.197,4.818-9.718,6.083
			c-5.391,1.938-11.366,2.834-17.026,3.56c-6.417,0.823-13.017-0.292-19.323,1.166c-2.721,0.63-5.488,0.427-8.263,0.253
			c-3.034-0.188-5.81-1.965-8.831-1.834c-5.011,0.215-11.048,1.64-12.941,6.787c-1.724,4.686-1.533,10.261-0.29,15.026
			c-1.726-0.625-3.521-0.793-4.972-1.787c-1.139-0.779-0.713-1.287-2.37-1.06c-1.14,0.156-1.679,0.896-2.801,1.344
			c-1.35,0.537-4.182,0.739-5.003-0.894c-1.172-2.326,2.296-3.556,3.879-3.633c-1.053-1.371-1.733-2.725-2.297-4.342
			c-0.673-1.929-1.035-2.689-2.554-3.874c-0.412-0.322-0.292-1.059-0.642-1.333c-0.581-0.453-1.433,0.256-2.121-0.493
			c-1.337-1.455,0.357-3.313,1.911-3.456c-0.146-1.063-1.454-0.472-1.763-1.09c-0.358-0.717,0.082-1.12,0.047-1.835
			c-0.055-1.116,0.185-1.88-0.793-2.786c-1.439-1.332-3.274-0.577-4.553,0.529c-1.421,1.229-3.107,2.745-4.107,4.374
			c-0.625,1.021-0.894,2.143-1.407,3.189c-0.274,0.558-1.244,1.514-1.236,2.13c0.02,1.101,0.661,0.766,1.069,1.56
			c0.701,1.363-0.416,2.505-0.099,4.221c0.36,1.961,1.704,2.555,1.997,4.68c-3.448-0.835-4.676-3.018-7.385-5.036
			c-2.824-2.102-6.489-3.961-9.91-4.76c-7.059-1.645-13.387-6.186-20.339-8.461c-3.428-1.122-6.947-1.995-10.447-2.852
			c-1.648-0.403-3.383-0.995-5.082-1.152c-2.118-0.195-4.188,0.339-6.301-0.108c-2.012-0.424-3.833-1.493-5.85-1.929
			c-1.912-0.412-3.879-0.362-5.811-0.597c-3.487-0.424-7.078-1.07-10.32-2.412c-2.917-1.207-5.737-1.301-8.774-1.992
			c-1.37-0.311-3.052-0.904-4.416-0.249c-0.511,0.243-0.788,0.761-1.249,1.009c-0.386,0.208-1.297,0.407-1.655,0.763
			c-4.472,4.454,10.471,10.393,12.637,11.92c3.056,2.154,5.862,4.551,8.994,6.63c3.056,2.029,6.39,3.752,9.365,5.882
			c2.698,1.931,4.594,4.786,7.356,6.633c2.197,1.468,4.534,2.319,6.474,4.177c5.46,5.225,10.454,11.148,14.899,17.255
			c2.384,3.276,4.41,6.905,6.5,10.375c0.953,1.58,1.819,3.236,2.986,4.668c1.261,1.546,2.841,2.777,3.875,4.515
			c1.691,2.918,3.932,5.904,5.054,9.098c1.54-1.104,3.614-1.296,5.371-0.627c0.75,0.285,1.378,1.11,2.043,1.342
			c0.926,0.323,2.153-0.087,3.283-0.158c-1.403-1.292-2.013-3.044-2.738-4.756c-0.995-2.343-2.279-4.296-3.682-6.411
			c-2.83-4.27-6.529-7.545-9.453-11.695c0.163,2.299-1.656,3.747-3.664,2.773c-1.979-0.96-4.22-3.166-5.738-4.74
			c-1.215-1.257-4.121-4.266-2.634-6.178c1.527-1.963,5.626,0.475,7.169,1.4c-3.27-4.633-7.117-8.783-11.138-12.778
			c-3.689-3.665-7.473-8.088-12.02-10.678c-2.134-1.215-3.887-2.162-5.611-3.951c-1.953-2.026-3.657-4.096-5.948-5.759
			c-4.54-3.296-9.428-6.392-13.484-10.29c4.796,0.44,9.876-0.099,14.491,1.332c3.864,1.199,7.685,0.266,11.488,1.404
			c5.305,1.587,10.474,3.562,15.507,5.869c4.746,2.176,8.834,5.783,13.612,7.826c4.111,1.758,8.117,3.038,11.468,6.275
			c1.642,1.585,2.653,3.537,4.809,4.521c2.138,0.978,4.173,1.044,5.838,2.877c1.461,1.61,2.427,3.176,4.217,4.51
			c1.631,1.215,2.849,2.31,4.154,3.619c2.461,2.465,8.564,1.703,7.252-2.652c-0.504-1.675-1.87-3.674-2.962-5.079
			c-0.501-0.644-1.151-1.14-1.611-1.817c-0.689-1.014-0.779-1.897-1.599-2.745c-1.332-1.377-1.482-0.802-1.934-2.984
			c-0.493-2.388-0.432-4.485-0.201-6.868c1.824,0.454,2.918,3.738,4.201,5.06c0.855,0.883,1.86,1.603,2.851,2.319
			c1.509,1.089,2.275,1.403,3.909,1.909c1.541,0.477,1.206,0.644,2.483,1.799c0.796,0.719,1.634,0.908,2.584,1.418
			c1.642,0.882,2.644,2.987,4.247,3.585c5.414,2.02,5.806-4.029,7.035-7.301c0.88-2.343,1.38-4.962,1.82-7.42
			c0.357-2,0.087-4.02,1.705-5.007c2.021-1.232,4.869-1.114,7.048-0.607c2.75,0.638,5.022,0.883,7.848,0.78
			c2.925-0.105,5.35-0.485,8.143-1.328c2.876-0.868,5.967-0.832,8.949-1.147c5.941-0.625,11.585-1.587,17.328-3.302
			c5.21-1.555,10.274-2.897,14.586-6.275c1.84-1.442,4.017-2.318,5.552-3.904c0.799-0.825,1.326-1.524,2.366-2.125
			c0.951-0.549,2.239-0.639,3.095-1.244c1.759-1.241,3.309-4.031,4.615-5.693c1.772-2.257,3.267-4.704,5.021-6.972
			c3.061-3.96,5.46-9.88,5.444-15.012C459.166,523.442,458.723,521.513,456.769,521.383z M368.311,572.066
			c0.111-0.337,0.222-0.674,0.332-1.011c0.022-0.616,0.287-0.904,0.795-0.863C369.779,570.88,368.87,571.834,368.311,572.066z"/>
		<path d="M622.432,719.843c-2.217,0.446-4.137,1.623-6.318,2.119c-2.597,0.592-5.342,0.197-7.983,0.696
			c-4.76,0.899-9.831,2.535-14.25,4.508c-2.475,1.107-3.255,3.304-4.996,5.162c-0.89,0.95-1.978,1.768-2.937,2.645
			c-3.618,3.31-7.536,6.561-11.81,9.005c-4.261,2.437-9.076,3.757-12.935,6.827c-3.623,2.884-7.909,3.36-12.293,3.912
			c-2.485,0.314-3.536,2.036-5.669,2.976c-2.251,0.995-4.953,0.043-7.355,0.595c-2.246,0.515-11.941,3.152-8.869,6.983
			c2.734,3.408,10.132,1.806,13.835,1.905c-6.708,6.532-16.571,7.103-25.077,9.905c-9.05,2.982-17.65,6.57-25.746,11.623
			c-11.96,7.465-24.628,17.69-38.875,19.957c-0.525,0.084-5.237,0.991-5.364,0.493c-0.239-0.933,3.759-3.324,4.43-3.901
			c3.794-3.27,6.817-7.217,9.958-11.084c5.14-6.329,10.7-12.267,15.695-18.727c6.334-8.193,12.207-16.737,17.953-25.351
			c2.56-3.838,5.045-7.727,7.664-11.526c2.22-3.22,5.636-7.85,2.796-11.721c-2.824-3.847-9.289-3.907-13.548-4.021
			c-5.484-0.148-10.93,0.272-16.389,0.698c-9.059,0.707-17.629-2.153-26.053-5.028c6.276,1.404,13.824-0.857,19.633-3.167
			c6.086-2.421,11.837-5.724,17.23-9.485c6.587-4.594,11.973-10.061,17.803-15.52c1.293-1.212,13.141-14.326,11.738-15.44
			c-0.993-0.784-10.046,9.492-11.047,10.908c-2.027,2.87-4.755,5.138-7.173,7.691c-2.599,2.744-5.071,5.363-8.041,7.732
			c-5.081,4.055-10.608,8.417-16.56,11.128c-2.763,1.26-5.914,2.311-8.857,3.062c-1.571,0.4-3.139,0.736-4.754,0.907
			c-2.203,0.232-3.12-0.5-3.153,1.772c-1.387-0.605-1.377-0.934-2.751-1.118c-0.65-0.086-1.659,0.099-2.322,0.146
			c-0.295,0.021-4.012,0.352-2.633,1.091c-6.964-2.388-13.062-6.3-19.732-9.325c-6.091-2.762-12.461-3.25-19.024-3.788
			c-6.838-0.56-13.596-2.002-20.472-2.087c-7.43-0.094-14.927,0.428-22.352,0.754c1.092-0.918,3.747-0.617,5.076-0.813
			c1.293-0.188,2.623-0.918,3.887-1.008c1.135-0.08,2.431,0.463,3.65,0.537c1.756,0.105,3.484-0.232,5.21-0.501
			c6.276-0.984,12.384-4.005,17.887-7.101c10.363-5.829,20.597-11.852,30.26-18.772c4.932-3.533,9.724-7.104,14.312-11.072
			c1.208-1.044,6.242-4.941,6.193-6.836c-0.042-1.613-4.082,2.093-4.751,2.619c-9.865,7.78-19.324,15.978-29.998,22.707
			c-6.158,3.881-12.429,8.347-19.089,11.299c-6.553,2.902-13.04,6.18-20.459,5.862c0.994-0.385,1.919-0.675,2.706-1.391
			c1.404-1.275,1.213-1.269,3.119-1.61c2.408-0.432,4.419-2.038,6.952-2.305c2.344-0.25,4.544-0.911,5.624-3.485
			c0.884-2.11-0.858-5.187-3.241-5.134c0.672-3.052-3.305-4.452-5.674-4.701c-1.803-0.191-3.469,0.069-5.231-0.493
			c-1.66-0.529-3.132-1.076-4.872-1.32c-3.337-0.467-7.025-0.051-10.229-0.956c-1.893-0.537-3.318-1.231-5.32-1.011
			c-1.298,0.144-2.366,0.461-3.678,0.296c-6.812-0.856-13.584-3.491-20.152-5.348c-1.764-0.499-3.588-1.213-5.422-1.31
			c-1.488-0.078-2.793,0.287-4.277,0.028c-1.309-0.228-2.807-0.641-4.046-1.11c-1.76-0.668-2.831-2.111-4.504-2.91
			c1.563-1.474,3.24-1.072,5.291-1.338c1.645-0.214,3.145-0.763,4.688-1.381c0.828-0.333,2.041-0.711,2.809-1.188
			c0.883-0.549,1.273-1.735,2.068-2.198c0.724-0.42,1.575-0.062,2.335-0.252c0.8-0.2,1.268-0.599,1.973-0.969
			c2.95-1.549,5.661-0.774,7.659-3.634c1.345-1.925,1.634-3.727-0.446-5.435c-1.798-1.478-2.719-0.581-4.33,0.366
			c-0.836,0.49-2.089,1.575-3.231,1.416c-0.646-0.091-0.497-0.117-1.23-0.773c-0.75-0.669-1.31-1.732-1.876-2.56
			c-2.376-3.489-4.479-6.831-6.245-10.655c-0.766-1.659-1.681-3.022-3.08-4.222c-1.936-1.661-2.14-0.659-3.208,1.314
			c-1.293,2.387-1.028,3.726-0.708,6.379c0.212,1.763,0.508,3.743,0.726,5.382c-0.029,0-0.059,0.004-0.087,0.014
			c1.069,1.995,2.65,3.627,4.262,5.196c0.968,0.942,1.969,1.862,3.039,2.689c1.12,0.863,2.147,0.96,1.188,2.335
			c-1.765,2.526-8.521,1.468-11.085,1.141c-1.755-0.226-1.996,0.206-3.467,0.52c-0.814,0.173-1.827,0.216-2.661,0.002
			c-0.874-0.227-1.447-0.848-2.267-1.117c-1.934-0.635-0.992,0.529-2.6,0.667c-1.185,0.101-1.747-1.42-2.898-1.622
			c-2.435-0.429-2.313,1.695-2.822,3.423c-1.425,4.828,1.668,8.1,4.778,11.613c1.297,1.466,2.228,3.26,4.196,3.901
			c1.076,0.35,2.174,0.117,3.278,0.135c1.688,0.027,2.561,0.412,4.025,1.246c2.009,1.143,3.673,1.59,5.966,1.955
			c2.626,0.419,4.669-0.259,7.234-0.216c3.023,0.05,6.129,1.165,9.075,1.747c2.95,0.584,6.002,0.823,8.986,1.189
			c3.432,0.42,6.413,0.955,9.825,0.643c3.128-0.288,5.805,1.653,8.92,2.035c2.799,0.344,5.726,0.861,8.386,1.844
			c1.217,0.45,2.308,1.233,3.561,1.589c1.713,0.487,3.433,0.152,5.178,0.15c-1.028,0.592-2.011,1.168-2.962,1.872
			c-1.339,0.996-2.057,0.917-3.516,1.495c-1.422,0.563-1.855,1.964-3.24,2.538c-2.41,0.999-5.912,1.177-8.491,1.085
			c-1.535-0.054-3.199-0.584-4.734-0.376c-1.313,0.179-2.223,0.919-3.589,1.068c-1.997,0.218-4.223-1.688-5.894-1.127
			c-0.862,0.292-0.981,1.213-2.006,1.293c-0.898,0.071-1.922-1.041-2.889-1.127c-1.893-0.167-4.045,1.035-4.366,2.974
			c-0.496,3.003,2.932,4.664,5.194,5.575c-4.604,0.543-1.883,2.604,0.59,3.701c4.546,2.013,9.62,2.705,14.515,3.26
			c11.351,1.287,22.726,1.18,34.067,2.647c9.118,1.178,18.127,0.522,26.57,4.605c4.941,2.39,9.723,5.077,14.919,6.892
			c5.868,2.049,11.879,3.775,17.958,5.074c12.85,2.746,25.569-0.871,38.499,0.565c-1.233,2.782-3.354,5.351-4.948,7.936
			c-2.339,3.794-4.665,7.595-7.056,11.357c-4.102,6.453-8.223,12.902-12.653,19.138c-4.734,6.664-9.989,12.813-15.232,19.066
			c-4.531,5.405-8.661,10.514-14.268,14.859c-5.014,3.884-3.85,11.324,3.257,11.156c5.67-0.134,11.565-1.49,16.798-3.582
			c14.095-5.63,25.955-15.71,39.88-21.657c7.505-3.203,15.31-5.605,23.14-7.86c3.93-1.133,7.929-2.277,11.464-4.39
			c1.68-1.003,3.266-2.191,4.642-3.585c0.446-0.453,3.207-3.177,2.91-3.989c0.037,0.08-2.528,0.144-2.528,0.144
			c-1.147-0.374-1.913-1.468-2.037-2.669c2.454,0.091,4.55,0.572,6.776-0.769c1.711-1.031,2.74-2.495,4.708-3.052
			c1.969-0.559,3.927-0.419,5.855-1.21c1.827-0.751,3.825-1.653,5.5-2.713c1.651-1.043,2.773-2.663,4.353-3.779
			c1.895-1.34,4.119-2.349,6.107-3.565c4.095-2.509,7.767-5.233,11.224-8.599c2.173-2.117,4.233-4.347,6.329-6.537
			c1.197-1.251,1.999-3.215,3.317-4.274c1.37-1.098,3.313-0.976,4.941-1.38c4.344-1.08,8.141-2.183,12.727-2.033
			c4.854,0.16,8.657-1.157,12.918-3.485c1.611-0.855,3.98-2.769,2.98-4.868C627.626,718.668,624.311,719.466,622.432,719.843z
			 M562.436,757.105c-0.761,0.47-1.367-0.798-0.565-1.289C562.524,755.416,563.102,756.692,562.436,757.105z M587.092,734.578
			c1.204-2.666,5.342-0.853,4.401,1.986C590.564,739.373,585.908,737.202,587.092,734.578z"/>
		<path d="M322.871,648.182L322.871,648.182c-0.016-0.031-0.042-0.053-0.058-0.083C322.869,648.086,322.889,648.114,322.871,648.182
			z"/>
		<path d="M633.178,953.83c-0.002-0.026-0.425-0.314-0.943-0.652c-0.005,0.01-0.048,0.051-0.047,0.056
			C632.201,953.155,633.176,953.798,633.178,953.83z"/>
		<path d="M640.067,744.484c-0.464-2.241-0.458-4.52-0.398-6.795C639.808,739.846,639.747,742.661,640.067,744.484z"/>
		<path d="M838.787,672.315c-2.434-0.582-4.691,0.618-6.996,1.019c-2.424,0.423-5.196-0.887-7.613-1.375
			c-2.175-0.438-4.753-0.506-6.815-1.273c-1.248-0.464-2.234-1.535-3.509-1.926c-1.18-0.363-2.261,0.014-3.45-0.043
			c-1.844-0.091-3.634-1.052-5.375-1.609c-2.882-0.919-5.849-1.554-8.734-2.447c-2.732-0.848-5.689-2.462-8.578-2.642
			c-3.167-0.196-5.929,0.372-9.031-1.036c-1.185-0.538-2.193-1.673-3.509-1.901c-1.404-0.244-2.496,0.699-3.84,0.674
			c-1.338-0.026-2.138-0.951-3.268-1.506c-1.234-0.605-2.398-0.754-3.773-0.834c-1.917-0.115-5.029-0.024-6.185,1.884
			c-1.474,2.429,1.542,4.498,3.308,5.574c2.014,1.229,4.263,1.932,6.275,3.124c0.935,0.554,1.78,1.454,2.909,1.622
			c1.516,0.226,2.684-0.989,4.135-0.973c1.408,0.015,2.502,1.072,3.792,1.513c1.297,0.44,2.752,0.525,4.119,0.633
			c2.792,0.22,5.069-0.674,7.915-0.216c5.781,0.931,11.625,2.487,17.418,3.194c1.154,0.142,2.392-0.314,3.526-0.055
			c1.374,0.312,2.359,1.536,3.561,2.182c2.407,1.294,5.679,1.97,8.31,2.823c-5.548,3.764-12.156,5.912-18.289,8.619
			c-3.163,1.397-6.233,3.142-9.461,4.364c-3.642,1.382-7.652,1.428-11.236,2.974c-5.465,2.358-9.874,3.426-15.839,4.049
			c-4.44,0.464-8.9,0.709-13.367,0.717c-7.831,0.01-15.522-2.143-23.301-2.15c-7.42-0.005-14.073-0.487-21.25-2.569
			c-3.533-1.024-6.36-0.417-9.922,0.006c-3.349,0.398-6.182-0.816-9.466-1.203c-5.576-0.658-13.738,0.203-18.446,3.57
			c-0.585,0.417-1.003,1.003-1.539,1.422c-1.077,0.841,0.155,0.146-1.481,0.802c-1.495,0.598-2.979,0.484-4.493,0.798
			c-2.115,0.44-5.699,2.115-7.583,3.158c-3.283,1.818-5.626,4.125-8.033,6.85c-0.714,0.808-1.711,1.495-2.668,1.971
			c-0.55,0.272-1.121,0.252-1.662,0.592c-0.661,0.417-1.01,1.524-1.82,1.669c-0.633-1.516-3.899-10.957-6.526-10.523
			c-2.783,0.459-0.818,9.778-0.593,11.335c-0.408-1.369-4.485-14.798-7.008-10.687c-1.305,2.13-0.781,6.24-0.701,8.544
			c0.148,4.281,0.405,8.585,0.702,12.856c0.24,3.441,0.615,6.83,0.502,10.285c-0.114,3.481-0.278,6.832,0.485,10.264
			c0.766,3.441,2.257,6.701,2.735,10.212c0.523,3.851-0.042,7.791,0.03,11.659c0.156,8.412,1.319,16.777,2.608,25.063
			c1.299,8.35,0.549,17.385,0.248,25.8c-0.525,14.615-0.431,29.243-1.012,43.867c-0.163,4.116,0.645,8.216,0.352,12.328
			c-0.311,4.351-1.655,8.58-2.233,12.898c-1.055,7.876-1.698,15.692-3.204,23.514c-1.564,8.121-4.139,15.781-4.976,24.044
			c-0.281,2.769-4.302,17.268-0.114,18.321c4.395,1.103,7.036-14.621,7.387-17.222c1.104-8.229,3.317-16.155,4.5-24.36
			c1.157-8.026,1.339-16.056,2.195-24.095c0.429-4.016,1.482-7.958,1.8-11.987c0.364-4.591-0.588-9.156-0.302-13.75
			c1.085-17.428,2.838-34.874,3.354-52.327c0.14-4.738,0.545-9.507,0.44-14.248c-0.107-4.82-1.185-9.554-1.361-14.379
			c-0.173-4.699-0.645-9.438-0.537-14.141c0.103-4.539,0.824-9.042,0.127-13.568c2.315,6.304,2.585,11.883,2.959,18.506
			c0.373,6.616,1.326,13.43,2.339,19.981c1.06,6.844,2.254,13.236,2.505,20.2c0.244,6.771,0.055,13.522,0.179,20.29
			c0.255,13.874,0.051,27.789-0.955,41.631c-0.483,6.635,0.453,13.143-0.828,19.733c-1.345,6.916-2.49,13.742-3.472,20.72
			c-1.038,7.378-1.986,15.201-4.456,22.253c-1.086,3.099-2.35,6.204-3.724,9.186c-0.704,1.533-1.51,3.07-2.531,4.42
			c-0.178,0.234-2.077,1.956-2.203,2.199c0.518,0.338,0.942,0.626,0.943,0.652c-0.002-0.032-0.976-0.674-0.991-0.596
			c-0.001-0.005,0.042-0.047,0.047-0.056c-1.015-0.662-2.522-1.585-2.845-1.578c-1.649,0.037-1.918,1.498-1.813,2.906
			c0.309,4.148,4.01,6.503,7.856,4.914c7.705-3.186,11.054-15.329,12.872-22.623c2.383-9.556,2.744-19.687,3.764-29.446
			c0.468-4.493,1.5-8.878,2.199-13.334c0.731-4.653,0.427-9.159,0.351-13.842c-0.102-6.329,0.899-12.749,1.362-19.051
			c0.746-10.176,1.075-20.353,1.451-30.545c0.359-9.705,1.27-19.657,0.293-29.355c-0.396-3.917-1.373-7.742-1.728-11.668
			c-0.435-4.834-0.868-9.677-1.26-14.513c-0.401-4.921,0.177-9.892-0.526-14.788c-0.623-4.346-2.44-8.31-3.493-12.535
			c-1.15-4.612-0.861-9.381-1.647-14.045c-0.846-5.031-2.31-10.11-3.932-14.944c1.961-0.121,2.717-2.042,4.222-3.003
			c1.389-0.887,2.731-1.555,3.734-2.991c2.267-3.247,4.801-6.335,8.542-8.112c3.424-1.624,6.786-2.282,10.671-2.262
			c1.776,0.007,3.061,0.017,4.769-0.272c2.363-0.4,4.984,0.202,7.405,0.451c-0.322-0.912,0.732-2.358,1.128-3.067
			c0.718,0.821,0.989,2.736,1.652,3.32c0.599,0.529,2.911,0.233,3.69,0.368c2.703,0.467,5.25,1.664,8.037,1.635
			c2.921-0.032,5.68-1.42,8.614-1.188c3.241,0.257,6.265,1.652,9.541,1.908c3.103,0.241,6.286,0.677,9.399,0.571
			c3.368-0.117,6.442-0.651,9.837-0.416c7.033,0.487,14.002,0.894,21.037,0.327c7.132-0.573,14.371-1.695,21.34-3.305
			c3.059-0.707,5.633-2.479,8.608-3.379c3.001-0.911,6.201-0.942,9.217-1.803c5.749-1.64,11.412-4.302,16.995-6.449
			c3.4-1.306,7.095-1.941,10.281-3.764c2.847-1.63,5.544-3.782,8.183-5.73c2.026-1.495,4.35-1.841,6.49-3.155
			C840.817,677.013,842.612,673.243,838.787,672.315z M639.669,737.689c-0.06,2.275-0.066,4.555,0.398,6.795
			C639.747,742.661,639.808,739.846,639.669,737.689z M654.461,887.127c-0.409,0.6-1.751,0.325-1.293-0.509
			C653.594,885.852,655.101,886.19,654.461,887.127z"/>
		<path d="M849.257,597.731c-1.807-0.333-2.2,0.828-3.675,1.297c-1.433,0.456-2.91,0.116-4.421,0.622
			c-1.776,0.593-3.125,1.526-4.968,1.718c-0.905,0.093-1.438-0.151-2.366,0.276c-0.601,0.276-0.955,1.041-1.589,1.307
			c-0.547,0.227-1.661,0.102-2.117,0.106c-4.047,0.032-7.75-0.707-11.715-1.225c0.949-1.107,1.654-2.588,2.897-3.411
			c-1.714,0.356-3.444,0.633-5.171,0.923c0.052-3.282,0.638-6.663,2.308-9.53c-1.755,0.417-3.132,0.991-4.422,2.277
			c-1.283,1.277-2.044,2.678-3.76,3.425c-1.539,0.669-3.261,0.714-4.788,1.453c-1.534,0.742-3.03,1.838-4.38,2.866
			c-1.402,1.067-2.758,2.328-3.686,3.847c-0.966,1.584-0.711,2.059-0.39,3.578c0.195,0.223,0.435,0.38,0.723,0.473
			c-0.119,0.364-0.239,0.726-0.358,1.09c0.143,1.161-0.146,1.623,0.787,2.536c1.25,1.223,3.388,1.113,4.96,1.107
			c1.232-0.006,2.505-0.215,3.732-0.168c0.969,0.038,2.403,0.824,3.263,0.581c1.362-0.388,0.984-1.89,2.514-2.079
			c1.461-0.182,2.567,0.725,4.186,0.213c1.446-0.458,2.255-1.33,3.771-1.555c1.98-0.294,3.957,0.189,5.958-0.101
			c1.881-0.273,3.922-0.477,5.759-0.979c1.868-0.509,2.679-2.063,4.78-1.533c-3.071,1.64-5.692,3.992-8.335,6.204
			c-1.345,1.125-2.66,1.713-4.232,2.452c-2.015,0.95-3.051,2.107-4.531,3.762c-1.34,1.496-2.985,2.271-4.732,3.24
			c-3.994,2.218-8.045,4.546-12.224,6.397c-3.48,1.54-7.615,2.528-10.764,4.724c-2.643,1.842-4.688,3.63-7.662,5.082
			c-2.933,1.43-6.181,1.136-8.492,3.689c-0.892,0.984-1.462,2.021-2.7,2.632c-1.37,0.678-3.007,0.616-4.408,1.235
			c-3.151,1.392-13.245,10.945-4.647,10.821c3.077-0.045,6.254-1.542,9.115-2.528c1.589-0.549,3.227-0.718,4.814-1.221
			c2.102-0.668,2.728-1.891,4.055-3.535c1.877-2.327,4.919-2.282,7.408-3.714c1.212-0.697,2.415-1.46,3.576-2.241
			c1.692-1.14,2.669-2.854,4.275-4.051c2.902-2.164,6.516-3.418,9.636-5.225c3.623-2.096,7.002-4.649,10.483-6.966
			c1.775-1.18,3.712-2.223,5.187-3.773c1.449-1.523,2.246-2.636,4.265-3.525c3.47-1.527,6.298-3.598,9.626-5.386
			c3.325-1.786,7.515-2.596,10.362-5.05c1.977-1.706,8.27-5.728,4.957-8.807C851.865,599.474,850.888,598.032,849.257,597.731z"/>
		<path d="M875.522,535.616c-1.503,3.602-4.434,6.546-6.524,9.858c-2.189,3.468-3.893,7.226-6.896,10.065
			c-2.701,2.553-3.626,6.004-6.203,8.528c-6.3,6.164-13.342,11.021-20.91,15.441c-1.92,1.122-3.805,2.101-5.38,3.694
			c-1.959,1.979-1.735,2.614-1.579,5.381c0.139,2.446,0.53,5.893-1.472,7.765c2.951-1.505,6.01-3.818,8.108-6.357
			c2.527-3.059,6.076-5.194,9.337-7.439c3.501-2.409,6.606-5.323,9.613-8.32c2.707-2.7,6.227-5.541,8.146-8.879
			c0.878-1.528,1.391-3.099,2.592-4.437c1.578-1.752,3.646-2.943,5.13-4.806c2.401-3.019,4.464-6.345,6.863-9.387
			c2.448-3.105,4.823-5.173,6.215-9.015c0.828-2.282,3.931-8.034,0.607-9.663C879.394,526.193,876.56,533.128,875.522,535.616z"/>
		<path d="M852.695,532.359c-1.61-0.681-3.41,0.678-4.905,1.079c-1.787,0.481-3.553,0.622-5.318,1.307
			c-1.895,0.736-3.874,0.997-5.729,1.711c-0.974,0.376-1.722,1.028-2.74,1.313c-4.482,1.265-9.198,0.52-13.641,1.502
			c-1.743,0.384-3.194,1.069-5.042,1.049c-1.892-0.019-2.857-0.27-4.679,0.308c-1.921,0.609-7.989-0.67-8.901,2.307
			c-0.816,2.67,5.551,2.539,7.292,2.708c2.238,0.219,3.646-0.883,5.852-0.947c1.985-0.059,3.627-0.316,5.504-1.002
			c4.871-1.779,10.539-1.437,15.376-3.609c3.455-1.559,7.586-2.508,11.448-2.972C848.769,536.927,856.879,534.128,852.695,532.359z"
			/>
		<path d="M459.729,268.607c-2.216,9.295-4.748,18.424-8.236,27.333c-1.715,4.382-2.772,8.934-4.423,13.316
			c-1.607,4.261-3.812,8.51-5.956,12.524c-0.971,1.817-2.168,3.473-3.34,5.163c-0.429,0.617-1.805,1.989-1.805,2.725
			c-0.002,0.783,0.858,1.006,1.032,1.893c0.492,2.509-2.681,3.122-3.749,4.578c-1.005,1.369-1.027,4.413-1.564,6.063
			c-1.136,3.497-3.416,6.431-4.917,9.76c-1.574,3.484-2.544,7.462-3.187,11.217c-2.597-5.159-6.139-9.473-8.15-14.906
			c-0.579-1.568-1.928-5.279-4.118-5.249c-3.654,0.052,0.483,5.475,0.926,6.731c-2.697-0.005-3.251,5.094-3.481,6.87
			c-0.529,4.05,0.088,7.887,0.631,11.899c0.648,5.336,0.368,10.479,1.463,15.823c1.06,5.173,3.11,10.034,4.195,15.175
			c0.578,2.741,0.808,5.594,1.696,8.262c0.917,2.76,2.686,5.118,3.697,7.833c1.145,3.079,1.848,6.372,2.751,9.521
			c3.309,11.546,6.227,23.081,8.759,34.82c1.041,4.83,3.255,9.18,4.307,13.959c1.118,5.072,1.869,9.845,1.851,15.038
			c-0.02,5.682,3.353,10.406,2.794,16.087c-0.557,5.666-0.469,11.653,0.654,17.268c1.097-0.453,2.275-0.769,3.446-0.959
			c0.251,1.165,0.28,2.428-0.243,3.529c-0.294,0.618-2.037,1.778-2.106,2.174c-0.247,1.409,1.64,3.052,2.876,2.523
			c3.43-1.47,3.824-10.482,4.162-13.464c-1.092,1.824-2.62,3.308-4.708,3.902c0.237-2.14,1.028-4.318,3.056-5.339
			c1.928-0.971,1.569,0.131,1.964-2.076c0.281-1.566,0.099-3.264,0.277-4.854c0.268-2.399,0.804-4.812,0.572-7.239
			c-0.295-3.087-1.902-5.679-2.822-8.577c-0.726-2.284-0.691-4.65-0.771-7.023c-0.099-2.97-0.728-5.741-1.448-8.622
			c-0.585-2.333-1.097-4.744-1.905-7.012c-1.04-2.916-2.674-5.531-3.57-8.507c-1.743-5.794-3.04-11.733-4.84-17.506
			c-1.895-6.075-4.148-12.04-6.23-18.052c-0.943-2.726-1.866-5.462-2.746-8.21c-1.027-3.21-2.606-5.958-3.921-9.031
			c-2.186-5.11-2.226-11.29-3.667-16.683c-1.573-5.89-2.419-12.197-2.189-18.287c0.232-6.165-0.643-12.815-1.657-18.913
			c0.836,1.043,1.089,2.385,1.899,3.449c0.379,0.497,0.884,0.857,1.234,1.382c1.272,1.905,2.133,4.758,2.777,6.959
			c0.867,2.966,1.655,5.664,1.926,8.686c0.078,0.863,0.878,7.919,3.111,6.062c-0.027,3.165,4.595,8.1,4.744,2.606
			c0.038-1.412-0.199-2.972-0.366-4.378c-0.223-1.87-1.65-2.771-1.514-4.419c0.335-4.068,2.927-8.801,4.38-12.605
			c1.566-4.108,3.505-7.648,5.619-11.494c2.163-3.935,2.678-8.062,3.844-12.322c1.192-4.347,4.228-7.683,6.256-11.629
			c4.816-9.361,7.15-19.287,10.431-29.19c1.802-5.436,3.401-11.03,4.676-16.614c0.509-2.23,0.526-2.614-0.651-4.462
			C461.947,273.746,460.679,271.252,459.729,268.607z M441.367,486.767c0.242-0.4,0.554-0.734,0.939-1.002
			c0.686,0.997,0.783,2.153,1.359,3.19c0.644,1.16,1.337,2.097,1.753,3.39c0.553,1.724,1.374,4.9-0.26,6.301
			C441.625,501.68,440.839,488.478,441.367,486.767z M439.585,473.863c-0.15,0.211-0.298,0.421-0.448,0.633
			c-0.105-0.228-0.21-0.455-0.315-0.683C439.076,473.829,439.33,473.846,439.585,473.863z"/>
		<path d="M674.367,433.538c-2.288-0.654-4.567-0.774-6.906-1.083c-2.563-0.339-4.652-1.39-6.888-2.62
			c-4.318-2.376-8.363-4.729-11.996-8.121c-3.353-3.128-4.02-7.456-6.416-11.175c-1.876-2.914-2.963-5.208-3.65-8.577
			c-1.151-5.644-1.652-11.367-2.078-17.103c-0.42-5.645,0.119-11.354-0.412-16.995c-0.266-2.815-1.396-5.412-1.594-8.255
			c-0.181-2.589-0.517-5.362-0.302-7.948c0.249-3.002,1.237-5.591,0.361-8.613c-0.704-2.426-1.767-4.378-1.473-6.984
			c0.642-5.696,0.678-11.325-1.698-16.725c-0.539-1.226-1.581-3.815-3.321-3.593c-1.873,0.237-2.492,3.645-2.769,5.034
			c-0.048-2.434-0.94-8.15-2.726-9.953c-0.314-0.316-1.447-0.404-1.626-0.641c-0.388-0.513-0.195-2.309-0.29-2.943
			c-0.146-0.967-0.332-1.931-0.612-2.87c-0.339-1.14-1.597-2.198,0.139-2.25c-0.843-1.767-2.228-3.022-2.836-4.918
			c-0.882-2.749-1.463-5.624-2.207-8.415c-0.915-3.438-1.793-6.873-2.654-10.318c-0.845-3.389-1.887-7.179-4.465-9.643
			c0.105,1.229,0.602,4.108-0.156,5.198c-0.937,1.348-1.514,0.863-1.996-0.214c-0.348-0.774-0.012-6.946,0.926-6.255
			c-1.307-1.54-2.704-3.565-3.733-5.313c-0.526-0.895-0.774-1.743-1.011-2.742c-0.485-2.051-0.527-0.904-1.52-2.241
			c-1.175-1.583-0.893-3.014-0.175-4.684c0.742-1.724,1.112-3.455,1.237-5.354c0.153-2.339-0.355-3.759-1.274-5.772
			c-0.627-1.373-1.208-3.822-2.733-4.769c-4.09-2.54-5.716,5.034-7.208,7.459c-0.617,1.003-2.162,1.84-2.518,2.849
			c-0.633,1.796,1.004,2.513-0.467,4.121c-1.466,1.602-2.935,2.615-3.602,4.839c-0.385,1.285-0.328,1.693-1.146,2.778
			c-0.967,1.281-2.357,2.094-3.498,3.18c-1.576,1.498-2.895,3.323-4.31,4.971c-0.773,0.901-1.959,1.832-2.505,2.905
			c-0.327,0.641-0.237,1.439-0.557,2.062c-0.878,1.702-2.745,2.066-3.931,3.543c-1.514,1.885-2.645,4.129-4.525,5.741
			c-1.224-2.065-1.504-4.506-2.842-6.623c-1.416-2.242-3.399-3.946-4.521-6.346c-0.681-1.456-0.907-2.396-2.196-3.381
			c-0.782-0.598-1.597-0.971-2.25-1.729c-1.433-1.663-2.361-4.045-3.463-5.934c-1.538-2.633-2.954-5.249-4.288-7.981
			c-0.67-1.376-1.414-2.765-2.181-4.094c-0.953-1.651-1.985-2.065-3.317-3.313c-1.953-1.83-3.26-4.302-4.241-6.73
			c-1.321-3.266-4.471-3.17-5.958-6.236c-1.108-2.284-2.923-4.161-5.31-5.219c-1.521-0.674-2.403-0.522-3.611-1.658
			c-1.338-1.257-1.802-2.802-2.347-4.492c-2.249-6.964-4.602-13.797-7.107-20.689c-0.89-2.446-2.972-4.222-3.363-6.811
			c-0.253-1.675-0.16-3.262-0.668-4.911c-0.48-1.555-1.116-2.99-1.464-4.59c-0.616-2.821-0.624-5.435-0.849-8.27
			c-0.203-2.528-1.652-5.57-2.885-7.765c-1.367-2.436-4.196-3.224-6.148-0.84c-1.87,2.284-1.523,7.063-1.905,9.835
			c-0.993,7.189-1.643,13.852-4.913,20.46c3.416,0.076,4.207,3.312,0.836,4.528c-0.738,0.267-1.874,0.082-2.548,0.4
			c-0.71,0.336-0.111-0.127-0.806,0.762c-1.144,1.466-1.737,4.083-2.503,5.792c-3.348,7.475-6.473,14.85-10.427,22.027
			c-3.287,5.965-4.35,12.885-6.46,19.332c-0.633,1.931-1.241,3.537-1.068,5.521c0.185,2.126,0.673,4.699-0.773,6.053
			c-1.394,1.305-0.48-1.69-1.772,1.268c-0.432,0.989-0.545,2.238-0.793,3.283c-0.387,1.622-1.314,3.682-0.718,5.204
			c1.954,0.42,3.979,0.597,5.872,1.27c1.337-7.188,2.557-14.392,4.623-21.417c1.757-5.979,2.756-12.45,5.923-17.865
			c7.051-12.057,13.531-24.764,19.247-37.531c0.979,7.318,4.636,11.646,8.902,17.289c4.412,5.836,4.753,12.637,3.161,19.572
			c-1.645,7.168-4.712,13.93-6.389,21.095c-1.743,7.445-1.849,15.143-1.005,22.717c2.817,25.289,9.515,49.984,14.99,74.766
			c3.855,17.449,7.81,34.921,13.36,51.924c-4.813-3.126-10.032-5.529-14.742-8.86c-2.367-1.673-4.548-3.579-6.646-5.575
			c-1.014-0.964-2.014-1.95-3.001-2.943c-0.401-0.404-1.003-1.328-1.511-1.556c-0.91-0.409-1.383,0.066-2.527-0.217
			c6.766,7.769,14.864,14.435,24.364,18.578c1.034,0.451,2.434,0.662,3.365,1.256c1.197,0.766,1.237,0.984,1.753,2.512
			c1.048,3.095,2.166,6.168,3.316,9.228c2.34,6.226,4.906,12.345,7.686,18.388c10.022,21.791,22.656,42.222,31.59,64.518
			c4.861,12.132,8.971,24.633,13.515,36.894c2.725-1.976,3.958,2.488,5.985,2.161c-3.023-8.995-6.842-17.708-9.981-26.667
			c-3.648-10.413-7.944-20.448-12.683-30.41c-1.032-2.17-2.085-4.33-3.163-6.478c-1.071-2.135-2.165-5.597-3.868-7.302
			c-0.463-0.463-1.371-0.44-1.851-1.136c-0.488-0.703-0.32-1.421-0.505-2.183c-0.586-2.407-2.158-4.651-3.406-6.903
			c-5.242-9.458-10.049-19.244-14.527-29.085c-9.097-19.995-15.281-41.089-20.447-62.393c-5.136-21.18-10.521-42.38-14.064-63.885
			c-1.971-11.971-4.912-24.15-4.22-36.355c0.692-12.155,6.861-22.65,8.83-34.479c0.849,1.707,1.449,3.938,1.864,5.807
			c0.44,1.981-0.107,4.224,0.752,6.111c0.983,2.16,2.912,2.808,3.402,5.27c0.469,2.357,0.474,3.965,1.632,6.108
			c1.286,2.376,6.603,9.253,8.461,3.905c1.46-4.203-1.353-9.372-1.404-13.668c1.563,1.981,2.146,4.213,3.965,6.147
			c1.494,1.589,3.41,2.251,4.774,3.936c2.94,3.633,5.348,7.735,8.235,11.449c1.32,1.701,2.391,3.829,4.09,5.169
			c2.179,1.716,2.197,1.967,3.186,4.612c0.76,2.033,2.275,3.644,3.18,5.629c1.06,2.327,1.069,5.104,2.28,7.258
			c0.851,1.513,2.431,2.415,2.617,4.095c0.289,2.602-0.312,4.467,1.563,6.774c1.811,2.226,7.893,3.517,5.365-0.654
			c-1.289-2.129-0.771-2.575,0.02-4.719c0.855-2.312,1.217-3.165,2.781-5.04c1.535-1.84,2.041-4.291,3.372-6.183
			c1.143-1.626,3.1-2.129,3.501-4.256c-0.288,0.678-1.451,0.493-1.198-0.399c0.147-0.52,1.138-0.666,1.286-0.03
			c0.522-2.613,4.087-4.475,5.971-5.991c2.812-2.263,8.231-4.598,9.19-8.271c1.155,1.463,2.867,2.758,3.344,4.657
			c0.391,1.555-0.014,1.803-0.521,3.528c-1.206,4.1-1.89,8.349-2.46,12.576c-1.011,7.475-1.58,15.181-1.514,22.731
			c0.074,8.416,1.309,17.053,2.179,25.429c0.903,8.677,2.491,17.3,4.266,25.834c3.94,18.945,7.523,38.211,9.997,57.404
			c2.302,17.855,3.501,35.817,0.716,53.702c-1.542,9.903-4.39,19.287-7.358,28.835c-0.639,2.053-7.965,20.827-6.755,21.478
			c1.188,0.648,8.698-21.433,9.216-23.124c1.54-5.02,3.184-10.018,4.349-15.144c0.577-2.544,1.092-5.102,1.518-7.677
			c0.139-0.837,0.084-3.123,0.558-3.732c0.453-0.58,1.353-0.486,2.364-0.624c2.391-0.326,4.637-2.028,6.417-3.63
			c2.282-2.057,4.177-3.863,5.864-6.429c1.014-1.545,4.914-5.882,4.195-7.917c-0.91-2.572-3.496,4.222-4.189,5.465
			c-1.523,2.732-3.219,4.429-5.85,6.323c-1.506,1.085-2.809,1.756-4.385,2.628c-1.261,0.697-2.979,1.197-4.124,2.152
			c2.098-13.396,1.301-27.186,0.115-40.603c-1.127-12.744-3.021-25.372-5.158-37.982c-1.081-6.377-2.226-12.747-3.359-19.118
			c-0.212,0.015-0.421,0.027-0.63,0.042c0.103-0.223,0.207-0.446,0.311-0.669c0.093,0.131,0.186,0.263,0.279,0.394
			c-3.522-19.823-6.92-39.665-7.937-59.815c-0.35-6.939,0.143-14.014,0.575-20.944c0.205-3.282,0.522-6.562,0.875-9.831
			c0.345-3.176,1.25-6.715,0.999-9.907c0.983,2.411,2.842,4.485,4.548,6.437c0.849,0.973,1.976,1.589,2.85,2.514
			c1.197,1.269,1.832,3.089,2.504,4.689c1.45,3.445,2.559,7.061,3.916,10.555c1.335,3.437,2.238,7.478,4.049,10.664
			c0.758,1.329,1.849,2.279,2.266,3.808c0.477,1.752,0.169,3.653,0.6,5.429c0.78,3.211,1.898,6.133,2.241,9.475
			c0.308,3.007-0.181,5.476,0.999,8.363c0.891,2.181,1.543,6.735,4.557,6.919c-0.47,2.211-0.755,4.212-0.132,6.415
			c0.653,2.314,1.98,4.158,2.015,6.624c0.035,2.414-0.575,4.705-0.368,7.135c0.207,2.411,0.435,4.926,0.863,7.308
			c0.483,2.683,1.784,5.065,2.114,7.786c0.342,2.821,0.615,5.681,0.832,8.512c0.434,5.646,1.18,11.207,2.331,16.759
			c0.953,4.586,1.683,9.995,3.913,14.162c1.057,1.976,2.479,3.671,3.371,5.743c0.968,2.25,1.56,4.627,2.783,6.767
			c2.232,3.908,6.154,7.375,9.695,10.1c3.845,2.959,9.025,6.491,13.833,7.41c3.46,0.66,10.032,1.762,13.294,0.046
			C682.883,437.158,676.758,434.221,674.367,433.538z M498.539,183.873c0.137,0.286,0.272,0.574,0.408,0.859
			c1.207,2.434,1.492,4.407,2.094,6.991c0.496,2.125,2.09,3.295,2.972,5.193c1.233,2.652,1.601,5.898,2.35,8.705
			C500.744,199.074,498.907,192.433,498.539,183.873z M552.714,270.351c1.508,0.654,3.11,1.024,4.734,1.105
			C555.824,271.374,554.222,271.004,552.714,270.351z M589.478,249.772c0.694,0.146,1.357,0.409,1.978,0.832
			C590.835,250.182,590.172,249.918,589.478,249.772z"/>
		<path d="M600.765,366.725c-0.054-0.074-0.107-0.15-0.159-0.225c0.014,0.078,0.027,0.155,0.041,0.233
			C600.686,366.731,600.726,366.727,600.765,366.725z"/>
		<path d="M746.248,397.689c0.915-0.796,1.293-1.02,0.115-1.482C746.326,396.702,746.287,397.195,746.248,397.689z"/>
		<path d="M754.486,416.747c-2.153-0.534-4.526-1.619-6.284-2.975c-2.359-1.821-2.452-4.152-2.546-6.903
			c-0.083-2.375-0.069-2.129,1.969-3.164c1.096-0.556,2.074-1.216,3.023-1.993c-1.084-0.75-4.996-2.522-4.4-4.023
			c-1.231,1.07-4.46-2.109-5.694-2.966c-0.717,4.018-1.021,8.036-4.326,10.79c-2.346,1.956-5.459,3.312-8.114,4.766
			c-3.917,2.145-7.843,4.189-12.067,5.645c-2.132,0.735-4.251,1.504-6.388,2.226c-2.144,0.724-3.589,1.908-5.569,2.905
			c-3.536,1.784-7.285,1.933-11.103,1.792c-2.354-0.088-3.268,0.705-5.387,1.525c-2.395,0.927-3.686,0.169-6.132-0.209
			c-3.202-0.495-7.902-0.169-10.744,1.48c-4.02,2.333-0.073,5.14,2.749,6.139c2.765,0.853,5.456,1.352,8.294,1.84
			c2.891,0.497,5.29,1.705,8.182,0.376c1.229-0.565,2.291-1.558,3.607-1.94c1.351-0.394,2.797-0.15,4.179-0.205
			c2.833-0.115,5.594-1.141,8.198-2.234c2.487-1.044,4.326-2.975,6.738-4.137c2.908-1.402,5.915-2.609,8.823-4.008
			c6.111-2.945,11.553-7.343,17.175-11.094c0.369,5.556,3.892,9.251,8.861,11.325c2.516,1.05,11.949,2.677,11.859-2.393
			C759.344,416.932,756.124,417.153,754.486,416.747z"/>
		<path d="M860.392,339.733c-2.318,2.113-4.304,4.843-7.134,6.285c-3.489,1.778-7.124,3.231-10.603,5.074
			c-3.392,1.796-6.352,4.112-9.916,5.591c-3.507,1.456-5.141,3.731-8,6.015c-2.351,1.878-5.267,3.261-7.809,4.865
			c-3.927,2.479-7.736,5.191-11.723,7.563c-3.527,2.098-7.237,3.992-10.579,6.396c-1.544,1.11-2.627,2.498-3.963,3.83
			c-1.538,1.537-3.427,2.659-5.206,3.891c-3.852,2.665-8.32,3.417-11.263,7.247c-2.611,3.397-6.16,3.758-9.45,6.257
			c-2.868,2.18-6.477,5.014-7.758,8.54c-1.724,4.75,4.221,3.095,6.668,2.082c4.405-2.028,8.975-3.868,13.304-5.997
			c2.081-1.023,3.1-2.629,4.409-4.451c1.647-2.298,3.565-2.974,6.015-4.205c2.274-1.146,4.189-2.934,6.163-4.522
			c2.263-1.818,3.665-4.221,5.766-6.147c4.338-3.971,9.737-6.931,14.385-10.532c4.474-3.468,9.106-6.688,13.636-10.067
			c1.935-1.445,3.178-3.622,5.33-4.789c2.654-1.441,5.648-2.009,8.306-3.529c2.345-1.342,4.768-2.327,7.254-3.371
			c1.193-0.501,2.685-0.878,3.747-1.598c1.154-0.782,0.637,0.055,1.296-1.309c0.237-0.491,0.233-1.212,0.396-1.743
			c0.998-3.259,5.86-7.779,8.671-3.615c2.371,3.513-2.304,8-5.313,9.202c-1.622,0.647-1.383-0.13-1.827,1.731
			c-0.247,1.037-0.06,2.195-0.21,3.252c-0.446,3.163-1.947,5.286-1.597,8.566c0.416,3.881-1.355,7.881-2.51,11.536
			c-0.818,2.595-1.665,5.242-2.95,7.643c-1.277,2.388-3.026,4.918-3.932,7.465c-0.694,1.95-0.683,3.671-1.763,5.502
			c-1.17,1.988-2.251,3.396-4.06,4.798c-2.131,1.651-1.988,2.707-3.03,4.93c-0.53,1.13-1.996,1.645-3.316,2.335
			c-2.45,1.28-8.11,6.161-5.476,9.176c2.725,3.121,8.886-0.722,11.504-2.221c2.902-1.664,4.438-2.078,5.969-5.074
			c0.694-1.361,0.271-0.719,1.599-1.228c0.625-0.24,1.217-0.528,1.764-0.918c1.691-1.204,3.984-2.271,5.44-3.826
			c1.408-1.502,2.74-2.408,4.565-3.455c1.4-0.802,4.145-1.407,3.981-3.628c-0.242-3.262-3.163-0.982-4.197-0.179
			c-3.111,2.415-4.662,4.715-8.488,6.193c1.773-3.268,2.518-5.713,3.186-9.295c0.768-4.127,3.214-7.965,4.279-12.042
			c1.028-3.939,1.587-7.977,2.346-11.971c0.365-1.93,0.519-3.249,0.312-5.19c-0.259-2.456,0.466-3.463,1.395-5.737
			c1.224-2.997,1.482-6.24,2.761-9.268c0.622-1.472,1.482-2.54,2.362-3.843c1.126-1.665,1.293-3.523,1.773-5.427
			c0.387-1.534,0.636-2.674,0.605-4.245c-0.022-1.067,0.144-1.518,0.345-2.714c0.109-0.645,0.216-1.455-0.06-2.082
			C866.143,333.748,861.919,338.341,860.392,339.733z M782.942,399.584c-4.148,1.712-6.627-4.563-2.647-6.347
			C784.276,391.466,786.931,397.938,782.942,399.584z"/>
		<path d="M886.09,420.357c-2.645-1.92-5.636-1.302-8.365-0.01c-1.93,0.915-3.515,2.577-5.568,3.198
			c-2.368,0.717-5.02,0.187-7.453,0.577c-0.101-2.649,0.992-5.153,0.833-7.824c-0.141-2.382-0.275-4.849-0.496-7.222
			c-0.461-4.968-4.559-5.85-6.325-0.812c5.766,0.999,5.35,7.546-0.666,7.242c0.327,3.541-2.252,12.458,1.561,14.892
			c1.884,1.204,4.472-0.173,6.405-0.562c2.54-0.511,5.28-0.235,7.746-1.08c2.553-0.876,5.093-4.14,7.966-4.158
			c4.289-0.03-1.001,4.132-1.948,4.949c1.81,0.366,3.826,2.546,3.592,4.507C887.038,430.455,892.193,424.785,886.09,420.357z"/>
		<path d="M879.357,493.791c0.245-0.415,1.294-0.881,1.354-1.327c0.147-1.077-1.831-0.795-2.748-1.088
			c-1.704-0.545-1.921-1.398-2.821-2.954c-0.364,0.462-0.795,1.385-1.303,1.657c-0.937,0.496-3.662-0.505-5.008-0.465
			c-2.046,0.062-3.612-0.122-5.608-0.734c-1.883-0.579-2.838-1.628-4.509-2.567c-1.816-1.02-3.048-0.052-4.88-0.379
			c-1.595-0.285-2.423-1.831-3.734-2.623c-2.229-1.35-6.993-2.592-9.214-0.638c0.174-2.207,0.594-4.74,1.578-6.748
			c1.173-2.397,3.336-3.745,4.183-6.364c0.76-2.355,1.032-3.872,3.257-5.301c1.993-1.282,3.71-2.374,5.509-3.958
			c3.998-3.521,6.976-7.673,11.086-11.069c4.511-3.728,8.951-7.327,13.119-11.453c-2.719,0.19-4.365-1.839-4.39-4.442
			c-3.089,2.552-6.211,5.11-9.588,7.267c-3.537,2.261-7.633,4.635-10.384,7.829c-2.501,2.908-5.483,5.298-8.655,7.483
			c-3.35,2.305-6.385,3.273-8.034,7.295c-1.143,2.785-2.387,4.97-3.975,7.518c-2.085,3.345-2.518,7.145-2.006,11.024
			c0.471,3.563,2.089,7.401,5.086,9.58c4.164,3.026,3.736-1.474,3.393-4.387c1.181,1.745,3.042,3.248,4.752,4.446
			c1.517,1.063,2.91,2.479,4.439,3.464c2.021,1.306,3.27,0.223,5.443,0.344c2.084,0.115,3.649,1.863,5.65,2.384
			c1.271,0.331,2.481,0.758,3.099-0.084c0.589-0.803-0.043-2.384,0.726-3.138c1.217-1.184,2.682-0.59,3.519,0.534
			c1.948,2.61,2.311,10.341,0.338,12.22c1.846-1.798,1.973-4.589,3.786-6.564c1.511-1.645,1.708-2.315,3.812-2.226
			c1.487,0.066,2.928,0.423,4.432,0.322c-0.576-0.997-1.723-2.294-1.967-3.4C878.835,494.075,878.616,495.05,879.357,493.791z"/>
		<path d="M864.63,508.459c-0.384-1.314-0.641-2.66-0.887-4.004c-2.191,1.548-3.322,3.759-5.104,5.687
			c-1.699,1.838-3.405,3.227-5.446,4.641c2.182,1.264,5.115,1.778,6.618,3.984c3.365-2.577,4.269-6.918,7.106-9.771
			C866.411,509.083,864.832,509.143,864.63,508.459z"/>
		<path d="M884.315,518.138c-1.401-0.064-1.632,1.017-2.72,1.404c-0.885,0.316-1.816,0.102-2.729,0.348
			c-1.937,0.521-3.153,2.131-5.072,2.501c-0.633-0.146-1.241-0.075-1.824,0.214c-0.428,0.565-0.902,1.089-1.421,1.572
			c-0.225,0.108-0.441,0.045-0.666,0.119c-1.743,0.584-4.663,0.112-6.423-0.218c-0.701-0.132-2.694-1.184-3.291-0.987
			c-0.133,0.043-1.177,1.722-1.554,1.945c-1.925,1.139-4.305-0.083-6.308,0.55c-2.353,0.745-4.349,2.309-6.957,1.374
			c-2.054-0.736-3.149-2.627-3.626-4.652c0.195,2.9,2.602,4.526,4.627,6.183c0.623,0.511,1.336,1.617,2.015,1.921
			c1.53,0.687,1.722-0.747,3.064-0.695c1.077,0.04,2.107,1.275,3.249,1.534c1.01,0.23,1.93,0.074,2.89-0.123
			c0.474-0.097,0.863-0.693,1.385-0.802c0.685-0.142,2.003,0.171,2.74,0.25c1.436,0.155,2.645,0.307,4.092,0.102
			c1.482-0.208,2.946-0.548,4.399-0.905c1.654-0.405,2.433-1.716,3.845-2.111c0.654-0.182,1.279,0.218,1.935,0.155
			c0.893-0.085,1.264-0.368,2.127-0.664c0.972-0.332,2.125-0.676,3.159-0.742c2.573-0.163,4.53,0.07,5.979-2.789
			C888.234,521.64,886.621,518.264,884.315,518.138z"/>
		<path d="M588.658,539.337c0.038,0.131,0.076,0.264,0.114,0.395C588.873,539.522,588.835,539.391,588.658,539.337z"/>
		<path d="M602.073,577.268c-0.992-5.871-2.228-11.686-3.494-17.502c-0.664-3.047-1.297-6.099-1.956-9.148
			c-0.167-0.766-0.412-3.977-1.005-4.414c-0.608-0.448-4.237,0.409-5.06,0.484c0.881,3.638,1.639,7.304,2.528,10.941
			c2.79,11.762,5.454,23.537,7.952,35.363c0.95,4.498,1.64,9.222,3.085,13.598c0.534,1.619,0.806,2.409,1.213,0.37
			c0.717-3.609-0.316-8.207-0.707-11.818C603.983,589.16,603.076,583.196,602.073,577.268z"/>
		<path d="M597.685,642.565c-4.156-1.513-8.479-2.662-12.775-3.7c-4.583-1.108-9.616-2.669-14.352-2.433
			c0.361-0.557-4.263-1.071-5.246-1.227c-1.753-0.277-3.5-0.594-5.254-0.871c-4.146-0.654-8.338-1.123-12.536-1.248
			c-4.615-0.135-9.232,0.109-13.847,0.047c-0.643-0.008-2.577,0.232-3.109-0.107c-0.329-0.208-0.849-2.037-1.013-2.388
			c-0.933-1.998-1.971-3.967-3.02-5.904c-3.598-6.645-7.605-13.041-12.044-19.167c-2.427-3.349-5.107-6.344-7.796-9.477
			c-1.273-1.484-2.535-2.976-3.847-4.426c-1.172-1.295-4.732-3.799-5.21-5.383c-0.199-0.664,0.826-3.173,0.935-4.08
			c0.144-1.227,0.228-2.494,0.333-3.726c0.155-1.832-0.22-3.141-0.529-4.904c-0.382-2.173-0.273-4.345-0.766-6.528
			c-1.821-8.069-4.915-15.78-9.449-22.672c-0.699-1.063-11.437-18.205-13.652-15.905c-0.944,0.981,4.067,5.19,4.673,5.912
			c2.759,3.284,5.264,6.71,7.58,10.303c4.245,6.583,6.308,13.511,8.325,21.072c0.887,3.32,1.071,7.04,1.401,10.431
			c0.304,3.091-0.408,6.133,0.234,9.259c-2.808-2.586-5.798-4.993-8.922-7.185c-2.727-1.914-5.502-3.569-8.503-5.013
			c-1.385-0.665-2.737-1.353-4.092-2.073c-1.488-0.791-1.492-0.831-2.88,0.137c6.34,2.865,12.148,6.035,17.582,10.385
			c6.279,5.029,11.263,11.017,16.433,17.124c4.67,5.513,8.085,11.685,12.41,17.413c3.981,5.276,6.407,11.544,10.619,16.729
			c-9.243-0.576-18.464-1.3-27.715-1.799c-8.479-0.46-17.151-0.649-25.573-1.746c0.546,1.466-0.288,3.179-1.978,2.455
			c-1.335-0.571-0.661-1.836-1.302-2.547c-1.258-1.395-7.188-1.636-9.517-2.102c-3.62-0.722-7.18-1.59-10.748-2.539
			c-2.585-0.686-3.815-2.929-5.625-4.772c-1.972-2.008-4.532-3.462-6.654-5.339c-2.653-2.346-5.67-3.984-8.638-5.856
			c-5.801-3.661-11.518-7.097-17.798-9.91c-4.688-2.099-9.644-3.857-14.493-5.566c-1.252-0.44-15.667-5.073-15.563-3.322
			c0.077,1.305,5.525,2.065,6.471,2.287c2.939,0.689,5.796,1.724,8.679,2.627c4.574,1.431,9.18,2.989,13.593,4.852
			c6.334,2.675,12.048,6.621,17.686,10.485c2.89,1.983,5.912,3.702,8.501,6.109c2.456,2.283,5.251,4.089,7.517,6.565
			c-15.07-4.904-30.219-10.837-46.31-10.666c-7.79,0.082-15.539,1.158-23.321,1.48c-8.256,0.34-15.487-1.244-23.188-4.139
			c-14.81-5.564-29.868-10.349-44.041-17.48c-11.796-5.935-22.936-13.82-32.779-22.57c-2.623-2.332-5.396-4.62-8.63-6.055
			c-0.817-0.364-7.688-2.516-7.706-0.676c-0.008,0.803,4.762,2.113,5.568,2.548c3.155,1.706,5.797,4.17,8.362,6.641
			c10.385,10.004,22.972,18.31,36.046,24.379c14.528,6.745,29.9,11.597,45.011,16.841c11.798,4.092,23.317,3.166,35.499,2.307
			c9.43-0.665,18.453-0.197,27.645,2.117c4.322,1.088,8.562,2.472,12.782,3.899c3.868,1.308,8.205,3.611,12.233,4.228
			c2.939,0.451,0.078,0.101,1.532-0.167c0.76-0.141,1.202-0.576,2.057-0.353c0.67,0.174,0.916,0.499,1.389,0.913
			c1.438,1.264-0.731,0.713,1.618,1.751c2.738,1.21,5.806,1.657,8.719,2.354c8.925,2.135,17.855,3.492,26.999,4.189
			c-3.432,1.673-6.977,3.541-10.266,5.485c-1.808,1.068-3.297,2.56-5.154,3.554c-2.355,1.262-4.765,2.397-7.104,3.706
			c-8.568,4.796-17.404,8.316-26.771,11.295c-8.637,2.746-17.059,3.054-26.047,3.102c-1.147,0.007-4.991-0.722-5.743,0.018
			c-1.201,1.184,1.197,1.338,2.493,1.552c4.283,0.707,9.139,0.501,13.452,0.051c17.866-1.864,36.306-9.144,51.738-18.099
			c3.582-2.078,7.306-4.358,10.71-6.743c1.61-1.128,3.462-3.364,5.219-3.741c2.368-0.509,5.854,0.442,8.3,0.649
			c10.963,0.93,21.997,1.864,32.977,2.54c5.635,0.347,11.273,0.125,16.911,0.25c5.381,0.119,10.681,0.984,15.991,1.78
			c11.354,1.702,22.64,3.442,33.948,5.439c0.958,0.224,9.421,2.571,9.735,1.48C606.414,645.572,598.547,642.878,597.685,642.565z"/>
		<path d="M599.527,613.46c-0.519-0.176-0.878-0.798-1.366-0.89c-0.376-0.072-0.831,0.569-1.032,0.489
			c-0.819-0.326-1.321-1.05-2.201-1.42c-0.471-0.197-1.034,0.054-1.46-0.121c-0.865-0.352-1.559-1.168-2.34-1.641
			c-1.145-0.693-2.569-1.437-3.843-1.86c-1.513-0.502-2.455-0.758-3.86-1.836c-1.26-0.968-1.902-1.86-3.385-2.423
			c-1.517-0.605-3.232,1.038-2.331,2.556c0.352,0.594,1.653,1.284,2.214,1.856c1.93,1.969,3.4,4.667,5.061,6.821
			c1.702,2.208,2.555,2.859,3.461,5.94c0.859,2.919,2.378,6.071,2.186,8.715c0.13-0.633,4.997,1.617,5.369,1.853
			c0.08-0.926-1.021-1.557-1.289-2.398c-0.332-1.044,0.147-1.91-0.378-3.075c-0.348-0.769-0.901-1.213-1.304-1.927
			c-0.617-1.095-0.678-2.509-1.15-3.672c-1.56-3.854-4.368-6.629-6.345-10.119c2.394-0.187,5.311,4.125,7.107,5.141
			c1.39,0.785,3.394,2.139,4.827,2.308c0.408,0.047,2.053,0.137,2.4,0.086c1.5-0.221,1.21-0.284,2.4-1.596
			c-0.004,0.008-0.004,0.01,0.001,0.002c-0.046,0.302-0.124-0.389,0.154,1.123c1.208-0.656,3.162-2.882,1.546-4.109
			C603.025,612.549,600.742,613.874,599.527,613.46z"/>
		<path d="M590.523,631.813c-0.068-0.534-0.064-1.068,0.01-1.601c-0.054,0.244-0.107,0.489-0.159,0.734
			C590.286,631.296,590.336,631.585,590.523,631.813z"/>
		<path d="M591.098,634.732c-0.135,2.502,2.956,4.792,4.016,1.531c-1.403-0.53-2.914-1.247-3.821-2.497
			C591.228,634.087,591.162,634.41,591.098,634.732z"/>
		<path d="M623.864,600.738c-1.023,2.195-1.759,3.022-4.296,4.416c-1.298,0.714-1.771,1.638-2.982,2.377
			c-0.64,0.389-1.502,0.578-2.041,0.9c-0.558,0.332-0.105,0.77-1.225,0.913c0.531-1.726,0.5-3.573,0.743-5.342
			c0.34-2.446-0.73-3.895-0.762-6.259c-0.029-2.213-0.396-3.817-1.112-5.896c-0.89-2.584-0.811-5.451-1.422-8.126
			c-1.281-5.603-3.274-10.672-4.266-16.321c-0.323-1.842-0.249-3.524-0.973-5.266c-0.614-1.478-2.45-5.309-3.955-2.326
			c-0.806,1.596,0.843,4.333,1.143,6.013c0.436,2.449,1.548,4.546,2.17,6.918c1.108,4.229,2.294,7.887,2.744,12.405
			c0.263,2.641,0.031,5.321,0.606,7.906c0.47,2.111,0.676,3.755,0.484,5.914c-0.127,1.432,0.025,1.562,0.443,2.953
			c0.363,1.201,0.17,1.825,0.133,3.095c-0.059,2.046,0.487,3.839,1.661,5.51c1.488,2.118,2.674,2.391,5.34,1.958
			c2.102-0.341,1.466-0.649,2.584-1.816c0.445-0.463,1.415-0.434,2-1.084c0.674-0.75,0.929-1.474,1.722-2.269
			c0.82-0.822,1.622-1.486,2.3-2.487c0.265-0.392,0.975-2.352,1.219-2.505c1.618-0.961,5.217-4.115,3.401-6.124
			C627.466,593.922,624.588,599.18,623.864,600.738z"/>
		<path d="M632.629,616.76c-0.122-0.432-0.52-1.155-0.572-1.465c-0.216-1.263,0.034-2.866-0.277-4.273
			c-0.016-0.073-0.36-1.092-0.358-1.001c-0.018-0.553,0.169-0.573,0.228-1.27c0.074-0.859,0.259-1.111,0.463-1.91
			c0.199-0.776,0.764-1.265,0.039-2.185c-0.913-1.161-2.451-1.098-3.164-0.042c-0.986,1.459-0.26,4.173-0.181,5.572
			c0.098,1.761-0.613,3.653-0.694,5.5c-0.102,2.372,0.465,4.708,0.674,6.869c0.054,0.933,1.036,1.769,1.954,1.677
			c1.556-0.156,1.675-2.296,1.916-3.421c0.106-0.5,0.57-1.879,0.532-2.201c-0.05-0.404-0.823-0.34-0.838-0.541
			C632.323,617.687,632.717,617.075,632.629,616.76z"/>
		<path d="M656.699,610.636c-6.879,4.649-13.777,9.293-20.305,14.433c-0.888,0.699-4.552,2.905-4.725,4.224
			c-0.206,1.575,4.413-1.157,5.027-1.474c-2.92,1.909-0.889,4.136,1.847,3.004c2.227-0.922,4.745-2.103,6.844-3.324
			c1.243-0.725,2.312-1.486,3.641-2.041c1.169-0.488,2.506-1.831,3.579-2.15c0.922-0.275,2.021,0.107,1.009,1.158
			c-3.262,3.529-7.652,6.792-9.926,10.981c-0.77,1.419-1.838,2.675-2.901,3.868c-1.384,1.551-1.17,2.703-1.896,4.498
			c-0.569,1.406-1.482,2.136-1.736,3.677c-0.223,1.349-0.473,4.487,1.249,4.952c1.261,0.34,4.285-5.55,4.988-6.908
			c0.363-0.705,0.311-1.229,0.519-1.917c0.424-1.395,0.465-1.421,1.344-2.639c0.842-1.168,1.545-2.373,2.205-3.653
			c2.146-4.161,5.864-7.27,8.382-11.287c1.817-2.9-0.138-6.968-3.948-5.358c-1.044,0.442-1.692,1.381-2.7,1.868
			c-1.016,0.492-2.199,0.581-3.251,1.056c-1.791,0.808-3.461,1.807-5.439,2.149c3.677-2.061,7.296-4.23,10.916-6.389
			c1.852-1.104,3.695-2.222,5.527-3.356c1.566-0.969,1.677-0.541,1.253-2.224C657.935,612.725,657.166,611.613,656.699,610.636z"/>
		<path d="M656.634,673.486c-0.561,0.41-1.92-0.892-2.455-1.253c-0.994,2.438-1.463,5.227-3.564,6.834
			c-0.99,0.756-6.357,5.365-6.906,4.345c-0.278-0.515,2.487-4.605,2.88-5.341c0.983-1.838,1.981-3.659,3.015-5.47
			c1.93-3.385,3.397-8.291,6.291-10.763c-1.933-0.784,0.787-2.679-1.253-3.577c-1.478-0.65-1.988,1.753-3.237,0.296
			c-0.823,2.433-3.194,3.921-5.296,5.437c-0.114-2.256-0.278-4.552-0.769-6.762c-0.245-1.101-0.808-4.563-1.956-5.019
			c-2.341-0.925-1.913,7.796-1.975,9.253c-0.143,3.322-1.301,7.054-0.783,10.226c0.206,1.266,0.437,2.656,2.079,2.725
			c1.88,0.078,1.812-2.386,2.895-2.391c-0.147-1.269,0.888-2.337,1.782-3.145c-1.067,2.218-2.238,4.384-3.282,6.614
			c-1.009,2.152-3.133,5.137-3.41,7.492c-0.26,2.199,1.497,4.226,3.809,3.876c2.174-0.329,4.409-2.966,6.048-4.279
			c-0.585,1.598-1.183,3.194-1.777,4.789c-1.755,4.869-4.069,9.305-5.052,14.478c-0.183,0.968-0.754,3.214,0.785,3.268
			c1.517,0.054,3.034-4.177,3.453-5.235c1.622-4.105,3.162-8.468,4.507-12.669c0.754-2.359,1.219-4.984,2.093-7.286
			c0.749-1.971,2.405-3.426,4.213-4.602C658.258,674.984,656.393,674.11,656.634,673.486z"/>
		<path d="M656.634,673.486c0.133-0.103,0.268-0.203,0.405-0.297C656.631,673.27,657.086,672.32,656.634,673.486z"/>
		<path d="M574.232,660.188c-0.194-0.074-0.388-0.151-0.581-0.226c-0.038,0.185-0.074,0.369-0.113,0.553
			C574.939,660.391,573.897,660.619,574.232,660.188z"/>
		<path d="M580.827,660.13c-1.942-0.337-4.084-2.115-5.993-2.915c-0.202,0.995-1.081,2.772-0.039,3.19
			c-1.145,0.099-1.026,2.072-1.235,3.102c1.941-0.082,4.866-0.63,6.767-0.051c1.092,0.331,1.981,1.341,3.12,1.663
			c1.807,0.51,1.538,0.507,2.504-1.478c0.555-1.133,0.499-2.504,1.011-3.571C585.097,660.141,582.651,660.447,580.827,660.13z"/>
		<path d="M588.597,646.887c-2.37-2.696-2.62,0.109-1.989,2.34c0.631,2.233,4.939,8.331,2.531,10.204
			c-1.622,1.285,3.155,1.731,3.623,1.338c1.27-1.061,0.991-3.787,0.589-5.167C592.564,652.891,590.446,648.988,588.597,646.887z"/>
		<path d="M614.007,712.149c-1.881-1.864-4.048-3.403-6.1-5.068c3.342-0.021,7.009-0.005,7.853-4.125
			c0.711-3.473-1.673-7.685-3.485-10.491c-2.078-3.216-3.863-6.597-5.963-9.806c-1.048-1.599-2.107-3.156-3.329-4.63
			c-1.758-2.118-3.536-2.334-6.308-2.239c3.712,4.156,6.693,8.742,9.221,13.703c0.583,1.144,7.337,12.789,4.87,13.107
			c-2.76-0.189-11.91-0.316-10.453,4.872c0.471,1.679,2.504,2.07,3.799,2.901c1.895,1.218,3.656,2.684,5.543,3.933
			c2.021,1.338,3.965,2.866,6.109,4.011c1.383,0.74,2.902,1.673,2.571-0.489C618.02,715.792,615.352,713.482,614.007,712.149z"/>
		<path d="M575.611,573.831c-1.558-2.653-3.065-5.331-4.717-7.929c-3.284-5.166-6.92-10.029-10.779-14.781
			c-8.284-10.202-17.617-19.769-27.447-28.474c-19.229-17.027-37.999-34.483-56.163-52.631c-5.36-5.355-10.357-11.041-14.986-17.04
			c-2.141-2.773-4.057-5.675-6.015-8.577c-1.169-1.731-2.304-3.486-3.484-5.209c-0.354-0.517-0.849-1.462-1.287-1.841
			c-1.167-1.011-1.123-0.512-2.64,0.465c2.918,4.138,5.73,8.344,8.565,12.538c6.477,9.371,14.702,17.344,22.658,25.416
			c4.064,4.122,8.238,8.13,12.451,12.098c0.927,0.873,2.128,1.152,2.914,1.933c0.607,0.606,0.936,1.523,1.534,2.212
			c2.121,2.438,4.161,3.368,7.109,4.359c-1.121-0.376-2.25-0.723-3.366-1.112c-0.134,0.481,4.354,3.959,4.808,4.358
			c2.077,1.828,4.162,3.65,6.244,5.475c3.897,3.418,7.811,6.818,11.665,10.285c7.764,6.984,15.61,13.845,22.714,21.51
			c6.553,7.073,12.972,14.199,18.635,22.015c5,6.901,9.174,14.295,13.234,21.776c0.385-1.387,0.816-1.719,0.455-3.075
			C577.372,576.331,576.274,574.958,575.611,573.831z"/>
		<path d="M583.862,595.403c0.034,0.079,0.887,2.31,1.35,2.226c0.26-0.047,0.053-0.777,0.038-0.919
			C585.125,595.473,585.131,595.59,583.862,595.403z"/>
		<path d="M581.494,585.417c-0.501,2.67-0.726,2.761,1.695,4.126c-0.123-0.308-0.247-0.617-0.37-0.925
			C582.377,587.552,581.936,586.485,581.494,585.417z"/>
		<path d="M447.352,434.061c0.324,0.456,1.615,1.023,2.045,1.297c-0.871-1.329-1.711-2.68-2.527-4.044
			C446.9,432.36,446.797,433.28,447.352,434.061z"/>
		<path d="M436.079,405.519c-0.327-1.129-3.312-13.661-4.015-13.63c-1.219,0.058,2.87,17.077,3.354,18.603
			c0.876,2.765,1.812,5.461,2.897,8.15c0.661,1.639,1.256,3.307,1.955,4.929c0.932,2.161,1.658,2.162,3.921,2.53
			c-0.929-2.03-1.868-4.043-2.695-6.116C439.507,415.227,437.511,410.483,436.079,405.519z"/>
		<path d="M494.779,370.914c-0.949-1.258-1.87-2.536-2.736-3.852c-0.421-0.65-0.832-1.305-1.236-1.963
			c-0.794-0.62-0.81-1.118-0.046-1.494c-0.053-0.486-1.011-0.366-1.18-0.661c-0.631-1.098-1.201-2.23-1.78-3.357
			c-1.211-2.358-2.453-4.703-3.637-7.074c-1.632-3.268-2.906-6.658-4.057-10.121c-3.393-10.212-5.479-20.794-6.606-31.485
			c-0.984-9.329-1.777-18.832-1.579-28.215c0.099-4.716,0.64-9.297,1.267-13.966c0.565-4.209,0.762-8.493,1.803-12.624
			c1.216-4.818,2.905-9.659,4.706-14.289c0.456-1.177,6.109-12.565,5.499-13.014c-0.927-0.681-6.508,9.966-6.97,10.944
			c-2.127,4.504-3.899,9.349-5.243,14.142c-1.301,4.644-1.511,9.411-2.117,14.169c-0.128,1.005-0.43,2.105-0.424,3.124
			c0.01,1.499,0.613,2.355,0.915,3.855c0.378,1.88,0.35,4.544-1.613,5.549c-0.333,13.637,0.995,27.846,3.521,41.247
			c2.739,14.531,7.679,27.772,14.553,40.804c-1.192-0.236-2.387-0.483-3.537-0.877c-1.513-0.518-3.264-0.658-4.709-1.219
			c0.154,0.963,0.101,1.527-0.131,2.462c1.546,0.434,3.167,0.888,4.725,1.283c1.268,0.32,3.493-0.261,4.483,0.209
			c1.398,0.664,3.141,4.851,4.142,6.261c1.691,2.383,3.494,4.68,5.33,6.951c0.277-1.782,0.823-1.51-0.417-3.041
			C496.708,373.431,495.732,372.179,494.779,370.914z"/>
		<path d="M567.268,334.496c1.369,14.48,1.973,28.904,1.021,43.43c0.521-0.298,1.075-0.514,1.661-0.652
			c1.249-14.477,1.283-29.438-0.399-43.896C569.297,334.311,568.183,335.058,567.268,334.496z"/>
		<path d="M567.155,391.207c-0.145,1.273-0.331,2.541-0.453,3.816c-0.253,2.624-0.422,5.182-0.987,7.769
			c-1.375,6.309-2.612,12.612-4.268,18.857c-1.036,3.824-2.427,7.532-3.451,11.361c-0.453,1.691-0.978,3.347-1.5,5.017
			c-0.228,0.732-1.691,4.094-1.192,4.888c0.893,1.425,2.523-3.736,2.898-4.703c1.387-3.573,2.266-7.31,3.432-10.959
			c3.993-12.482,5.657-25.555,7.173-38.509C567.264,389.632,567.388,389.157,567.155,391.207z"/>
		<path d="M564.039,313.078c0.524,3.577,1.124,7.129,1.438,10.73c0.134,1.524,0.335,3.019,0.636,4.52
			c0.123,0.607,0.162,2.041,0.571,2.54c0.574,0.699,2.102,0.36,2.717,1.341c-0.378-2.562-3.96-28.29-6.312-27.77
			C562.221,304.63,563.922,312.401,564.039,313.078z"/>
		<path d="M453.855,330.1c-1.138,1.635,2.679,9.168,3.625,10.825c0.673-1.902,0.939-1.707,0.19-3.622
			C457.123,335.903,455.21,328.154,453.855,330.1z"/>
		<path d="M462.913,346.987c-0.742-0.936-1.422-1.927-2.145-2.861c-1.006-1.301-0.687-1.266-2.472-1.828
			c4.454,7.331,9.287,13.824,16.791,18.328c0.167-0.713,0.501-1.535,1.208-1.879c-3.032-1.588-5.377-3.181-7.934-5.482
			C466.368,351.285,464.655,349.184,462.913,346.987z"/>
		<path d="M711.119,531.495c-0.569,0.626-0.781,2.156-1.068,2.931c-0.757,2.053-1.535,4.098-2.334,6.136
			c-1.428,3.638-2.705,7.358-4.252,10.947c-3.127,7.256-7.269,13.68-11.262,20.452c-3.418,5.814-7.521,10.68-11.987,15.713
			c-1.044,1.177-13.062,12.833-12.55,13.539c0.785,1.117,12.78-10.353,13.711-11.325c5.315-5.542,9.558-11.093,13.468-17.687
			c3.477-5.864,6.895-11.495,9.671-17.746c3.356-7.555,5.987-15.539,8.702-23.345C711.647,530.761,711.995,530.531,711.119,531.495z
			"/>
		<path d="M741.808,450.104c-4.923,7.603-8.536,15.801-11.767,24.238c-6.01,15.686-10.457,31.919-15.694,47.885
			c0.524,0.247,1.046,0.502,1.561,0.769c5.298-17.027,9.91-34.164,16.525-50.733c2.94-7.368,6.505-14.455,10.868-21.084
			c2.256-3.426,4.438-6.916,6.916-10.19c0.576-0.758,6.886-7.66,6.235-8.436C755.065,430.905,742.702,448.723,741.808,450.104z"/>
		<path d="M716.89,435.82c-10.765,11.547-16.705,26.94-19.065,42.38c-1.326,8.687-0.896,16.757,0.392,25.381
			c1.091,7.306,3.28,15.286,7.177,21.68c0.109-1.158,0.805-2.141,0.723-3.168c-0.066-0.85-0.748-1.88-1.042-2.699
			c-0.573-1.594-0.948-3.229-1.438-4.848c-0.685-2.263-1.877-4.335-2.419-6.641c-0.383-1.631-0.514-3.328-0.81-4.977
			c-1.727-9.607-2.013-18.736-0.38-28.418c1.563-9.26,4.647-18.072,9.614-26.067c2.245-3.61,4.964-7.051,7.57-10.413
			c0.261-0.336,3.28-3.503,2.843-4.096C719.363,432.993,717.407,435.312,716.89,435.82z"/>
		<path d="M822.766,504.621c-3.847,3.127-7.566,6.364-11.471,9.441c-2.024,1.593-4.056,2.966-6.219,4.362
			c-0.907,0.585-1.91,1.186-2.691,1.942c-1.102,1.067-1.124,0.438-0.382,1.916c4.772-3.063,9.405-6.345,13.982-9.703
			c2.738-2.01,5.276-3.984,7.611-6.47C825.794,503.763,825.948,502.043,822.766,504.621z"/>
		<path d="M828.46,467.098c-1.823,1.108-3.672,2.149-5.467,3.313c-6.617,4.29-13.305,6.28-20.722,8.83
			c-3.102,1.065-6.212,1.441-9.303,2.35c-2.439,0.717-7.18,0.416-9.256,2.132c-2.254,1.864,4.216,1.092,5.44,1.023
			c3.372-0.187,6.96-1.168,10.22-2.17c9.876-3.035,18.87-7.694,27.803-12.789c1.403-0.836,2.803-1.426,4.109-2.433
			c0.883-0.679,4.691-3.371,1.841-3.266C831.572,464.145,829.77,466.303,828.46,467.098z"/>
		<path d="M839.89,379.75c-6.416,12.606-11.648,25.604-19.246,37.589c-7.636,12.047-15.473,24-24.461,35.101
			c-4.616,5.701-9.562,11.156-13.266,17.526c-2.501,4.299-4.561,8.868-6.637,13.383c-5.528,12.025-9.379,24.82-15.905,36.381
			c-6.933,12.281-16.262,22.919-26.461,32.592c-11.418,10.828-23.031,21.366-36.199,30.066c-6.292,4.158-12.232,8.579-18.156,13.244
			c-2.258,1.779-4.585,3.453-7.016,4.989c-1.196,0.755-3.69,1.677-4.562,2.771c-0.878,1.101-0.289,4.401-0.448,6.088
			c8.021-4.685,15.023-10.143,22.322-15.862c3.424-2.684,7.099-5.019,10.69-7.469c1.309-0.892,4.745-4.149,6.155-4.166
			c1.143-0.014,3.887,1.798,5.021,2.238c16.752,6.522,34.214,9.295,52.113,6.822c15.582-1.996,30.567-9.11,43.947-17.074
			c6.386-3.801,12.86-7.378,18.891-11.733c0.368-0.267,6.855-4.601,6.424-5.236c-0.767-1.133-5.585,2.505-6.684,3.224
			c-11.478,7.511-22.911,14.67-35.126,20.936c-12.489,6.405-26.615,8.421-40.456,8.858c-4.394,0.139-8.913-0.325-13.201-1.285
			c-3.628-0.812-7.365-1.152-10.967-2.035c-6.526-1.602-12.772-4.426-19.473-5.39c15.732-12.275,30.738-25.904,43.471-41.319
			c1.664-2.014,1.41-2.185,3.726-1.991c1.893,0.159,3.89-0.123,5.77-0.31c3.56-0.354,6.557-1.229,9.992-2.105
			c4.284-1.09,8.138-2.305,12.256-3.922c2.021-0.792,4.071-1.518,6.075-2.352c0.861-0.359,2.01-0.651,2.753-1.218
			c1.372-1.05,1.347-0.395,0.741-2.181c-3.024,1.425-6.226,2.487-9.385,3.565c-3.5,1.195-6.826,2.737-10.494,3.423
			c-3.145,0.59-6.147,1.697-9.322,2.058c-3.117,0.353-6.978,0.722-9.804,2.164c8.838-11.265,14.579-24.044,19.621-37.341
			c2.335-6.16,4.7-12.298,7.518-18.258c1.37-2.898,2.714-5.814,4.258-8.627c1.221-2.228,2.85-4.077,3.25-6.594
			c0.187,0.173,0.376,0.346,0.562,0.518c4.508-6.279,9.867-11.908,14.617-18.003c4.33-5.556,8.548-11.235,12.563-17.022
			c8.316-11.993,15.66-24.126,21.557-37.48c2.262-5.122,5.938-11.531,6.232-17.255C843.357,372.925,840.455,378.64,839.89,379.75z"
			/>
		<path d="M734.542,641.633c-3.078,0.977-6.251,1.534-9.421,2.14c-10.469,2.005-21.41,2.51-31.542-1.403
			c-6.233-2.407-12.932-6.15-17.236-11.338c-2.122-2.561-4.395-4.717-5.844-7.743c-1.351-2.824-2.636-5.66-3.863-8.541
			c-0.702,2.935-0.661,4.714,0.738,7.551c4.851,10.417,14.087,17.29,24.709,21.376c11.403,4.389,24.118,3.254,35.893,1.301
			c2.833-0.47,5.485-1.005,8.207-1.956c0.818-0.284,6.18-1.906,5.085-2.921C740.4,639.295,735.446,641.346,734.542,641.633z"/>
		<path d="M747.078,670.514c-6.715,1.73-13.897,2.898-20.786,3.61c-5.995,0.617-11.642,1.341-17.732,1.332
			c-3.757-0.007-7.487-0.246-11.231-0.538c-0.976-0.076-1.525,0.216-2.148,0.374c-0.434,0.11-0.726,0.399-1.202,0.481
			c-0.96,0.168-1.338-0.386-2.132-0.625c-0.148-0.199-0.296-0.398-0.445-0.596c-0.537,0-1.076-0.014-1.612-0.038
			c-6.747-0.968-13.516-1.713-20.132-3.318c-2.023-0.491-4.104-0.849-6.159-1.181c-0.859-0.139-3.79-1.018-4.471-0.424
			c-0.773,0.674-0.043,0.728,1.067,1.244c1.967,0.915,4.214,1.51,6.304,2.037c12.622,3.284,25.746,4.249,38.805,4.258
			c7.653,0.006,15.057-1.155,22.635-1.743c6.588-0.513,13.837-1.458,20.213-3.212c1.18-0.324,7.907-1.609,7.844-3.035
			C755.853,668.091,747.858,670.314,747.078,670.514z"/>
		<path d="M657.72,466.901c-1.691,3.657-2.4,7.582-3.469,11.432c-2.133,7.669-3.175,15.352-4.501,23.175
			c-1.687,9.958-1.86,20.52-2.5,30.586c-0.666,10.474-0.16,20.899-0.668,31.367c-0.138,3.699,0.622,7.335,0.506,11.039
			c-0.119,3.86,0.058,7.728,0.462,11.571c0.136,1.288,0.021,4.348,0.855,5.421c0.66,0.848,0.158,0.889,0.742-0.017
			c0.736-1.143,0.281-4.14,0.298-5.43c0.034-2.482,0.02-4.965,0.025-7.447c0.039-17.107-1.044-34.148-0.306-51.302
			c0.441-10.262,1.237-20.42,2.834-30.548c1.461-9.258,4.001-18.229,6.457-27.258C658.989,467.53,659.803,462.398,657.72,466.901z"
			/>
		<path d="M458.219,565.06c-1.699-0.505-3.385-1.057-5.12-1.427c-1.795-0.384-2.337,0.023-3.653,1.236
			c3.902,0.665,7.648,1.735,11.469,2.758C460.994,565.454,460.163,565.637,458.219,565.06z"/>
		<path d="M401.135,619.699c-8.55,2.063-16.811,5.114-25.437,6.867c-9.614,1.952-20.295,5.509-30.146,4.004
			c-1.852-0.282-3.686-0.52-5.516-0.919c-1.508-0.329-3.412-0.548-1.491,1.06c2.837,2.378,9.588,2.11,12.934,1.756
			c8.631-0.913,17.374-2.773,25.933-4.302c2.077-0.372,27.556-6.331,26.652-8.591C403.812,618.942,401.443,619.63,401.135,619.699z"
			/>
		<path d="M543.822,647.668c0.421-0.032,3.658,0.078,3.676,0.404c0.916-0.683,8.351-7.139,7.343-8.176
			C554.145,639.18,545.06,646.682,543.822,647.668z"/>
		<path d="M508.172,675.332c-4.292,3.28-9.884,6.461-15.053,8.131c-2.88,0.931-5.76,1.751-8.742,2.25
			c-3.328,0.557-2.477,1.587,0.618,1.562c10.084-0.591,18.6-7.403,26.589-12.832c9.982-6.783,19.76-13.598,29.455-20.757
			c-0.577-0.658-0.845-1.567-0.779-2.434C530.278,660.162,518.784,667.223,508.172,675.332z"/>
		<path d="M513.946,643.801c-4.964,3.161-9.792,6.232-14.944,9.123c-10.997,6.174-22.737,11.755-34.485,16.36
			c-5.511,2.159-11.408,4.463-16.592,7.287c-0.686,0.374-5.779,2.698-5.283,3.69c0.598,1.193,6.853-2.461,7.639-2.86
			c11.808-5.983,24.211-10.963,36.375-16.181c6.361-2.521,12.112-5.929,18.266-8.863c2.716-1.293,4.804-3.242,7.363-4.746
			c2.667-1.566,5.149-3.24,7.362-5.437c0.547-0.545,3.542-3.165,1.993-3.349C519.84,638.613,515.465,642.834,513.946,643.801z"/>
		<path d="M484.828,779.3c-1.394,1.055-2.825,2.027-4.322,2.927c-2.183,1.321-22.262,12.937-21.398,14.52
			c0.482,0.89,13.853-7.184,15.028-7.889c5.65-3.385,10.982-6.689,16.201-10.734c-0.467-0.067-2.405-0.974-2.779-0.922
			C486.979,777.286,485.333,778.918,484.828,779.3z"/>
		<path d="M557.556,694.687c-1.467,1.817-2.865,3.689-4.164,5.629c-0.728,1.089-1.425,2.199-2.119,3.309
			c-0.211,0.336-0.565,1.217-0.892,1.433c-0.873,0.573-0.508,0.01-1.586-0.172c-3.935-0.669-7.494-1.45-11.529-1.577
			c-3.18-0.1-6.669,0.325-9.869,0.463c-3.918,0.17-7.643,0.883-11.526,1.176c-2.108,0.16-4.144,0.606-6.251,0.889
			c-1.266,0.167-3.494,0.434-4.318,1.351c-1.572,1.749,1.687,1.25,2.974,1.177c1.189-0.068,2.611,0.044,3.763-0.155
			c3.369-0.581,6.775-1.536,10.179-2.218c4.46-0.892,10.122-1.556,14.642-1.359c4.287,0.187,8.268,1.743,12.496,2.061
			c-7.122,11.257-12.657,23.216-20.817,33.848c-8.76,11.413-20.148,22.309-31.989,30.502c0.491,0.281,1.451,1.51,1.809,1.533
			c0.891,0.058,3.707-2.905,4.47-3.515c2.302-1.837,4.555-3.724,6.671-5.775c4.883-4.736,9.836-9.367,14.399-14.419
			c9.083-10.06,15.358-21.87,21.82-33.659c3.288-5.901,7.111-11.854,11.264-17.179c1.981-2.539,4.085-5.025,6.406-7.261
			c1.375-1.326,2.828-2.568,4.306-3.775c1.583-1.291,1.706-1.069,0.472-2.75C564.255,687.415,560.725,690.763,557.556,694.687z"/>
		<path d="M578.449,677.783c-0.352,0.14-2.685,0.989-2.804,1.322c-0.079,0.219,0.501,1.434,0.569,1.711
			c1.47-0.817,2.956-1.575,4.479-2.292c0.674-0.316,3.268-1.04,3.646-1.788C585.037,675.352,578.948,677.578,578.449,677.783z"/>
		<path d="M538.306,731.93c-1.224,6.583-1.642,12.649-5.621,18.289c-0.907,1.285-1.382,1.755-2.742,2.546
			c-0.896,0.522-3.73,1.695-1.8,2.514c2.493,1.058,5.251-1.885,6.333-3.471c2.075-3.037,3.075-5.764,3.896-9.4
			c0.804-3.558,0.316-7.503,1.57-10.888c0.625-2.062,1.219-3.342,2.464-5.127c0.631-0.903,3.123-4.615,0.107-3.049
			C539.858,724.724,538.797,729.283,538.306,731.93z"/>
	</g>
</g>
</svg>
